<svg xmlns="http://www.w3.org/2000/svg" viewBox="0 0 327.04 113.06"><defs><style>.cls-1{fill:#fff;}</style></defs><title>Logo SKB</title><g id="Layer_2" data-name="Layer 2"><g id="Layer_1-2" data-name="Layer 1"><circle class="cls-1" cx="37.71" cy="83.1" r="29.96" transform="translate(-47.72 51) rotate(-45)"/><path class="cls-1" d="M2.61,84.17A40.19,40.19,0,0,1,80.34,69.81,40.18,40.18,0,1,0,2.69,85.69C2.67,85.18,2.61,84.69,2.61,84.17Z"/><path class="cls-1" d="M85,81.6l1.4-6.1a12.2,12.2,0,0,0,7.14,6.43,9.89,9.89,0,0,0,9.3-1.75,8.34,8.34,0,0,0,2.45-9A10.14,10.14,0,0,0,100,65.9c-5.71-2.7-12.4-3.12-13.69-10.76a11.5,11.5,0,0,1,6.14-11.9c4.76-2.31,10.48-1,15.35,1.1l-1.24,5c-.44-3.18-3.68-5.46-6.88-5.56-3.86-.13-8.25,2.11-9.44,5.9-1,3.13,0,8.48,7.9,10,5.82,1.09,13.28,5.73,12.63,12.7-.7,7.48-9,12.48-16,11.87A35.48,35.48,0,0,1,85,81.6Z"/><polygon class="cls-1" points="151.29 41.8 147.42 41.88 126.93 61.37 126.93 42.02 120.01 42.02 120.01 84.25 126.93 84.09 126.93 63.14 144.79 84.09 151.29 84.09 131.21 60.38 151.29 41.8"/><path class="cls-1" d="M183.52,67.06a6.76,6.76,0,0,0-1-1.52,11,11,0,0,0-3.9-2.87,14.44,14.44,0,0,0-2.76-.92,11.94,11.94,0,0,0-1.48-.24c-.4,0-.9.06-1.21-.24a.56.56,0,0,1-.21-.42c0-.55.89-.57,1.29-.66s1-.23,1.46-.38a12.09,12.09,0,0,0,3.37-1.6,7.29,7.29,0,0,0,3.12-5c.65-4.72-1-8.27-5-10a10.83,10.83,0,0,0-3.78-.86c-2.76-.15-6.35-.07-9.45-.12-3.74-.06-6.77-.22-6.77-.22V83s2.58-.21,6.18-.13c4,.08,8,.27,11.89-.62a11.64,11.64,0,0,0,8-6.2,10.06,10.06,0,0,0,1.06-4.95A10.55,10.55,0,0,0,183.52,67.06ZM163.25,44.71s9.07-2.27,12.53,3.55a7.75,7.75,0,0,1,.61,6.28c-1.44,4.6-5.17,6.79-13.14,5.58Zm0,35.85V62.51s14.88-2.47,15.24,8.64C178.89,83.69,163.25,80.56,163.25,80.56Z"/><polygon class="cls-1" points="193.39 42.91 193.39 82.98 214.05 82.98 214.05 80.91 198.45 80.91 198.45 62.95 212.58 62.95 212.58 60.94 198.5 60.94 198.5 45.28 214.05 45.28 214.05 42.91 193.39 42.91"/><polygon class="cls-1" points="306.38 42.91 306.38 82.98 327.04 82.98 327.04 80.91 311.44 80.91 311.44 62.95 325.56 62.95 325.56 60.94 311.49 60.94 311.49 45.28 327.04 45.28 327.04 42.91 306.38 42.91"/><path class="cls-1" d="M237.77,62.55S249.26,62,249.26,52s-10.75-9.56-10.75-9.56l-15,.11V82.59h5.38v-19h2.64l14.55,19h7.06ZM229,61.78V44.27c0-.72,8.21.47,8.79.64,5.83,1.77,8.14,8.79,3.68,13.27C238.43,61.24,233.41,62,229,61.78Z"/><path class="cls-1" d="M293.75,51.08s-5.53-8-18.15-6.58a10,10,0,0,0-4.14,1.44c-3.81,2.39-9.79,8.35-7.13,21.74,4.11,20.66,25.93,13.18,25.93,13.18V66h5.48V81s-38.69,13.7-38.69-17.83C258.75,36.79,283.31,42,294.7,44.27,294.17,48.39,293.75,51.08,293.75,51.08Z"/><path class="cls-1" d="M312.27,39.83h1.89l10.74-7a2.23,2.23,0,0,0,0-2.35,1.85,1.85,0,0,0-2.73-.14Z"/><path class="cls-1" d="M88.19,103.62,87,107.24H85.46l3.91-11.51h1.79l3.93,11.51H93.5l-1.23-3.62ZM92,102.47l-1.13-3.32c-.25-.75-.42-1.43-.59-2.11h0c-.17.69-.36,1.39-.58,2.09l-1.13,3.33Z"/><path class="cls-1" d="M121.39,105c0,.85,0,1.6.07,2.25h-1.33l-.08-1.35h0a3.11,3.11,0,0,1-2.73,1.53c-1.29,0-2.85-.72-2.85-3.62V99h1.5v4.58c0,1.56.47,2.63,1.84,2.63a2.18,2.18,0,0,0,2-1.37,2.21,2.21,0,0,0,.14-.77V99h1.5Z"/><path class="cls-1" d="M143.64,96.6V99h2.15v1.14h-2.15v4.45c0,1,.29,1.61,1.12,1.61a3.32,3.32,0,0,0,.87-.1l.07,1.12a3.41,3.41,0,0,1-1.33.21,2.11,2.11,0,0,1-1.63-.62,3.12,3.12,0,0,1-.58-2.16v-4.5h-1.28V99h1.28V97Z"/><path class="cls-1" d="M172.79,103a4,4,0,0,1-4.11,4.38,3.92,3.92,0,0,1-4-4.24,4,4,0,0,1,4.1-4.4A3.91,3.91,0,0,1,172.79,103Zm-6.55.09c0,1.81,1,3.17,2.51,3.17s2.51-1.35,2.51-3.21c0-1.4-.7-3.17-2.47-3.17S166.23,101.56,166.23,103.13Z"/><path class="cls-1" d="M192.64,101.22c0-.86,0-1.56-.07-2.24h1.31l.07,1.33H194a2.86,2.86,0,0,1,2.59-1.52,2.44,2.44,0,0,1,2.33,1.66h0a3.48,3.48,0,0,1,.92-1.08,2.81,2.81,0,0,1,1.83-.59c1.09,0,2.71.72,2.71,3.59v4.86H203v-4.68c0-1.59-.58-2.54-1.79-2.54a1.94,1.94,0,0,0-1.78,1.37,2.62,2.62,0,0,0-.12.75v5.1h-1.47v-5c0-1.31-.58-2.26-1.72-2.26a2.06,2.06,0,0,0-1.86,1.5,2.11,2.11,0,0,0-.12.74v5h-1.46Z"/><path class="cls-1" d="M232.3,103a4,4,0,0,1-4.11,4.38,3.92,3.92,0,0,1-4-4.24,4,4,0,0,1,4.1-4.4A3.91,3.91,0,0,1,232.3,103Zm-6.55.09c0,1.81,1,3.17,2.51,3.17s2.51-1.35,2.51-3.21c0-1.4-.7-3.17-2.48-3.17S225.75,101.56,225.75,103.13Z"/><path class="cls-1" d="M254,96.6V99h2.15v1.14H254v4.45c0,1,.29,1.61,1.12,1.61a3.28,3.28,0,0,0,.87-.1l.07,1.12a3.47,3.47,0,0,1-1.33.21,2.1,2.1,0,0,1-1.63-.62,3.12,3.12,0,0,1-.58-2.16v-4.5h-1.28V99h1.28V97Z"/><path class="cls-1" d="M275.75,101.56c0-1,0-1.81-.07-2.57H277l.05,1.61h.07a2.48,2.48,0,0,1,2.29-1.81,2.15,2.15,0,0,1,.43.05v1.42a2.92,2.92,0,0,0-.52-.05,2.12,2.12,0,0,0-2,1.94,5.18,5.18,0,0,0-.07.69v4.41h-1.48Z"/><path class="cls-1" d="M301,96.65a.87.87,0,0,1-.95.92.89.89,0,0,1-.91-.92.93.93,0,0,1,.95-.94A.89.89,0,0,1,301,96.65Zm-1.66,10.59V99h1.5v8.26Z"/><path class="cls-1" d="M320.34,106.37l3.73-4.86c.36-.44.7-.83,1.08-1.27v0h-4.47V99H327v.94l-3.69,4.8c-.34.46-.68.87-1.05,1.29v0H327v1.2h-6.7Z"/><path class="cls-1" d="M70.47,9.9l3,.95a6.7,6.7,0,0,1-2.28,3.71,7.18,7.18,0,0,1-9-.86,7.94,7.94,0,0,1-2-5.67,8.34,8.34,0,0,1,2-5.91A6.74,6.74,0,0,1,67.3,0a6.34,6.34,0,0,1,4.55,1.65,6,6,0,0,1,1.56,2.81l-3,.73a3.15,3.15,0,0,0-3.21-2.56A3.47,3.47,0,0,0,64.4,3.85a6,6,0,0,0-1.06,3.94,6.39,6.39,0,0,0,1,4.12,3.38,3.38,0,0,0,2.71,1.23,3.08,3.08,0,0,0,2.11-.78A4.53,4.53,0,0,0,70.47,9.9Z"/><path class="cls-1" d="M75.47,8a9.69,9.69,0,0,1,.7-3.91A7.17,7.17,0,0,1,77.59,2a5.93,5.93,0,0,1,2-1.37A8.37,8.37,0,0,1,82.84,0a7.16,7.16,0,0,1,5.39,2.09,8,8,0,0,1,2,5.81,8,8,0,0,1-2,5.78,8,8,0,0,1-10.78,0A7.87,7.87,0,0,1,75.47,8Zm3.17-.1a5.71,5.71,0,0,0,1.2,3.93,4.11,4.11,0,0,0,6.06,0,5.83,5.83,0,0,0,1.18-4,5.74,5.74,0,0,0-1.15-3.91,4.26,4.26,0,0,0-6.12,0A5.76,5.76,0,0,0,78.64,7.88Z"/><path class="cls-1" d="M92.7,15.51V.26h3l6.24,10.18V.26h2.86V15.51H101.7L95.56,5.57v9.94Z"/><path class="cls-1" d="M114,15.51V.26h11.31V2.84H117V6.22h7.66V8.79H117v4.15h8.52v2.57Z"/><path class="cls-1" d="M128.26,15.51V.38h3.08V12.94H139v2.57Z"/><path class="cls-1" d="M146.74,15.51V.26h6.48a11.11,11.11,0,0,1,3.55.41,3.51,3.51,0,0,1,1.77,1.46,4.39,4.39,0,0,1,.67,2.4,4.07,4.07,0,0,1-1,2.83,4.85,4.85,0,0,1-3,1.41,7.19,7.19,0,0,1,1.65,1.28,17.3,17.3,0,0,1,1.75,2.48l1.86,3h-3.68l-2.23-3.32A21.63,21.63,0,0,0,152.91,10a2.36,2.36,0,0,0-.93-.63,5.08,5.08,0,0,0-1.55-.17h-.62v6.37Zm3.08-8.8h2.28a11.77,11.77,0,0,0,2.77-.19,1.66,1.66,0,0,0,.86-.65A2,2,0,0,0,156,4.73a1.83,1.83,0,0,0-.41-1.24,1.89,1.89,0,0,0-1.16-.6q-.37-.05-2.25-.05h-2.4Z"/><path class="cls-1" d="M162.11,15.51V.26h11.31V2.84h-8.23V6.22h7.66V8.79h-7.66v4.15h8.52v2.57Z"/><path class="cls-1" d="M175.54,10.55l3-.29a3.65,3.65,0,0,0,1.1,2.22,3.32,3.32,0,0,0,2.23.71,3.43,3.43,0,0,0,2.24-.63,1.87,1.87,0,0,0,.75-1.47,1.38,1.38,0,0,0-.32-.92,2.52,2.52,0,0,0-1.11-.66q-.54-.19-2.46-.67a8.35,8.35,0,0,1-3.47-1.51,4,4,0,0,1-1.4-3.07,3.92,3.92,0,0,1,.66-2.18,4.14,4.14,0,0,1,1.9-1.54,7.64,7.64,0,0,1,3-.53A6.43,6.43,0,0,1,186,1.26a4.44,4.44,0,0,1,1.52,3.36l-3.08.14a2.62,2.62,0,0,0-.85-1.69,3.1,3.1,0,0,0-2-.51,3.52,3.52,0,0,0-2.1.55A1.11,1.11,0,0,0,179,4a1.17,1.17,0,0,0,.46.93,8.13,8.13,0,0,0,2.83,1,14.94,14.94,0,0,1,3.32,1.1,4.28,4.28,0,0,1,1.68,1.55,4.53,4.53,0,0,1,.61,2.43,4.49,4.49,0,0,1-.73,2.45,4.36,4.36,0,0,1-2.06,1.7,8.64,8.64,0,0,1-3.32.56,6.6,6.6,0,0,1-4.44-1.34A5.81,5.81,0,0,1,175.54,10.55Z"/><path class="cls-1" d="M190.53,15.51V.26h4.94a17.91,17.91,0,0,1,3.66.23A4,4,0,0,1,201.33,2a4.74,4.74,0,0,1,.88,3,5,5,0,0,1-.51,2.36,4.18,4.18,0,0,1-1.29,1.5,4.48,4.48,0,0,1-1.6.72,17.6,17.6,0,0,1-3.19.22h-2v5.75Zm3.08-12.67V7.17h1.69a7.94,7.94,0,0,0,2.43-.24,2,2,0,0,0,1-.75A2.05,2.05,0,0,0,199,5a2,2,0,0,0-.49-1.37,2.13,2.13,0,0,0-1.24-.68,14.78,14.78,0,0,0-2.22-.1Z"/><path class="cls-1" d="M216.91,15.51h-3.35L212.23,12h-6.1l-1.26,3.46h-3.27L207.55.26h3.26Zm-5.67-6-2.1-5.66-2.06,5.66Z"/><path class="cls-1" d="M218.62,15.51V.38h3.08V12.94h7.66v2.57Z"/><path class="cls-1" d="M231.54.26h5.63a11,11,0,0,1,2.9.29,5.1,5.1,0,0,1,2.3,1.4,6.65,6.65,0,0,1,1.46,2.47,11.25,11.25,0,0,1,.5,3.6,10,10,0,0,1-.47,3.25A6.73,6.73,0,0,1,242.23,14a5.41,5.41,0,0,1-2.16,1.22,9.32,9.32,0,0,1-2.72.32h-5.79Zm3.08,2.58v10.1h2.3a8.41,8.41,0,0,0,1.86-.15,2.85,2.85,0,0,0,1.24-.63,3.23,3.23,0,0,0,.81-1.47,10,10,0,0,0,.31-2.79,9.11,9.11,0,0,0-.31-2.71A3.5,3.5,0,0,0,240,3.7,2.94,2.94,0,0,0,238.54,3,14,14,0,0,0,236,2.84Z"/><path class="cls-1" d="M246.32,8a9.69,9.69,0,0,1,.7-3.91A7.17,7.17,0,0,1,248.43,2a5.93,5.93,0,0,1,2-1.37,8.37,8.37,0,0,1,3.29-.6,7.16,7.16,0,0,1,5.39,2.09,8,8,0,0,1,2,5.81,8,8,0,0,1-2,5.78,8,8,0,0,1-10.78,0A7.87,7.87,0,0,1,246.32,8Zm3.17-.1a5.71,5.71,0,0,0,1.2,3.93,4.11,4.11,0,0,0,6.06,0,5.83,5.83,0,0,0,1.18-4,5.74,5.74,0,0,0-1.15-3.91,4.26,4.26,0,0,0-6.12,0A5.76,5.76,0,0,0,249.49,7.88Z"/></g></g></svg>